<svg xmlns="http://www.w3.org/2000/svg" xmlns:xlink="http://www.w3.org/1999/xlink" style="height:592px" viewBox="96 115 358 240">
  <defs>
    <path id="a" fill="transparent" d="M196 115h159v135H196z"/>
  </defs>
  <g fill="none" fill-rule="none" stroke-miterlimit="10" font-family="none" font-size="none" font-weight="none" style="mix-blend-mode:normal" text-anchor="none">
    <path fill="#171c8f" fill-rule="nonzero" d="M138.774 326.237a420.568 420.568 0 0 0-1.906-5.364 5857.204 5857.204 0 0 0-8.4-23.823 103.922 103.922 0 0 0-.493-1.447 54.159 54.159 0 0 0-1.624-4.217c-.588-1.353-1.411-2.676-2.47-3.97-2.424-2.8-5.1-4.6-8.03-5.4-2.928-.8-5.793-.8-8.593 0-3.576 1.106-6.294 2.935-8.152 5.488-1.859 2.553-2.865 5.276-3.018 8.17-.153 2.894.547 5.417 2.1 7.57 1.553 2.153 3.953 3.37 7.2 3.653 2.094.118 3.988-.324 5.682-1.324 1.694-1 3.023-2.417 3.988-4.252.823-1.694 1.13-3.388.917-5.082-.211-1.694-.894-3.088-2.047-4.182-1.152-1.094-2.694-1.594-4.623-1.5-1.364.14-2.506.7-3.423 1.676a5.476 5.476 0 0 0-1.518 3.459c-.094 1.329.4 2.594 1.483 3.794.047-1.106.57-1.97 1.57-2.594 1-.624 2.1-.853 3.3-.689 1.812.377 2.882 1.253 3.211 2.63.33 1.376-.094 2.735-1.27 4.076-1.976 2.07-4.388 3.023-7.235 2.859-3.012-.306-5.123-1.518-6.335-3.635-1.212-2.118-1.612-4.5-1.2-7.147.412-2.647 1.541-4.894 3.388-6.741 1.847-1.847 4.312-2.641 7.394-2.382 1.906.235 3.694 1.059 5.364 2.47 1.67 1.412 2.988 3.459 3.953 6.141a8511.484 8511.484 0 0 1 16.058 45.21h2.294l11.858-37.093 12.105 37.092h2.294l15.882-46.056c.517-1.365 1.288-2.447 2.311-3.247 1.024-.8 2.03-1.2 3.018-1.2h-9.811c1.011 0 1.74.4 2.188 1.2.447.8.447 1.882 0 3.247l-11.153 32.61-12.105-37.057h-2.294zm56.467-19.481c-3.035 0-5.8.74-8.293 2.223a16.844 16.844 0 0 0-5.965 5.965c-1.482 2.494-2.223 5.258-2.223 8.293s.741 5.8 2.223 8.294a16.844 16.844 0 0 0 5.965 5.964c2.494 1.482 5.258 2.224 8.293 2.224 3.035 0 5.8-.742 8.294-2.224a16.844 16.844 0 0 0 5.964-5.964c1.483-2.494 2.224-5.259 2.224-8.294s-.741-5.8-2.224-8.293a16.843 16.843 0 0 0-5.964-5.965c-2.494-1.482-5.258-2.223-8.294-2.223zm0 2.011c2.07 0 3.841 1.412 5.312 4.235 1.47 2.824 2.206 6.235 2.206 10.235 0 4-.736 7.411-2.206 10.235-1.47 2.823-3.241 4.235-5.312 4.235-2.07 0-3.847-1.412-5.329-4.235-1.482-2.824-2.223-6.235-2.223-10.235 0-4 .741-7.411 2.223-10.235 1.482-2.823 3.259-4.235 5.33-4.235zm22.058 26.505v-20.328c0-1.93-.312-3.23-.935-3.9-.624-.67-1.536-1.006-2.736-1.006l12.6-3.212v7.482c2.07-5.34 5.117-8.093 9.14-8.258 2.518-.047 4.406.576 5.665 1.87 1.259 1.294 1.912 2.765 1.959 4.412.047 1.647-.477 2.982-1.571 4.006-1.094 1.023-2.712 1.229-4.853.617.847-.682 1.212-1.688 1.094-3.017-.117-1.33-.694-2.388-1.729-3.177-1.035-.788-2.494-.735-4.376.16-1.177.61-2.23 1.905-3.159 3.881-.93 1.977-1.653 4.694-2.17 8.153v12.317c0 1.317.376 2.388 1.13 3.211.752.824 1.623 1.235 2.61 1.235h-16.41c.988 0 1.859-.411 2.612-1.235.753-.823 1.129-1.894 1.129-3.211zm62.079 2.611c1.529 1.224 2.8 1.836 3.811 1.836h-10.658c-2.306 0-4.482-1.494-6.529-4.482l-8.364-12.706v12.705c0 1.342.376 2.424 1.13 3.247.752.824 1.623 1.235 2.61 1.235h-16.41c.988 0 1.859-.411 2.612-1.235.753-.823 1.129-1.906 1.129-3.247v-37.939c0-1.905-.306-3.2-.918-3.882-.635-.659-1.552-.988-2.752-.988l12.599-3.212v30.952l9.176-7.306c.87-.847 1.282-1.74 1.235-2.682-.047-.917-.353-1.706-.918-2.365-.588-.682-1.211-1.023-1.87-1.023h16.728c-.658 0-1.776.294-3.352.882-1.577.565-3.353 1.435-5.33 2.612-1.976 1.176-3.964 2.67-5.964 4.482l-2.859 2.294 11.153 16.905c.964 1.388 2.211 2.694 3.74 3.917zm5.929-21.81c-.094 2.635.564 4.705 1.976 6.211 1.412 1.506 3.218 2.659 5.417 3.459a55.701 55.701 0 0 0 6.723 1.976c2.4.541 4.43 1.165 6.088 1.87 1.66.706 2.512 1.742 2.56 3.106-.119 3.318-3.036 5.024-8.753 5.118-2.988-.094-5.706-.994-8.153-2.7-2.447-1.706-4.117-3.688-5.011-5.947v10.588l.088-.194c.059-.13.153-.283.282-.46a2.45 2.45 0 0 1 .494-.493c.2-.153.442-.265.724-.336.282-.07.6-.047.953.071.14.047.33.118.564.212.824.33 2.094.717 3.812 1.164 1.718.447 3.753.671 6.106.671 3.082 0 5.711-.435 7.887-1.306 2.177-.87 3.853-2.059 5.03-3.564a9.034 9.034 0 0 0 1.94-5.118c.095-2.635-.558-4.7-1.958-6.193-1.4-1.494-3.194-2.63-5.382-3.406a60.022 60.022 0 0 0-6.67-1.941c-2.424-.518-4.477-1.135-6.159-1.853-1.682-.718-2.547-1.782-2.594-3.194.047-1.506.577-2.63 1.588-3.37 1.012-.741 2.212-1.23 3.6-1.465 1.388-.235 2.682-.33 3.882-.282 2.73.141 4.659.864 5.788 2.17 1.13 1.306 1.612 2.7 1.447 4.182-.165 1.483-.812 2.577-1.94 3.282 1.552.565 2.946.6 4.181.106 1.235-.494 2.159-1.305 2.77-2.435.612-1.13.765-2.353.46-3.67-.495-1.718-1.442-3.018-2.842-3.9-1.4-.882-2.97-1.488-4.711-1.818-1.741-.329-3.388-.505-4.941-.529-2.212-.07-4.453.194-6.723.794-2.27.6-4.206 1.641-5.806 3.124-1.6 1.482-2.506 3.505-2.717 6.07zm34.727 34.48v-35.645c0-1.906-.312-3.194-.935-3.864-.624-.67-1.535-1.006-2.735-1.006l12.6-3.212v2.647c1.928-1.67 4.434-2.576 7.516-2.717 3.082-.024 5.859.7 8.33 2.17 2.47 1.47 4.446 3.465 5.928 5.982 1.483 2.518 2.224 5.294 2.224 8.33 0 3.034-.741 5.799-2.224 8.293a16.844 16.844 0 0 1-5.964 5.964c-2.494 1.482-5.259 2.224-8.294 2.224-2.706 0-5.211-.624-7.517-1.87v12.704c0 1.341.376 2.418 1.13 3.23.752.811 1.623 1.217 2.611 1.217h-16.446c1.012 0 1.894-.406 2.647-1.218.753-.811 1.13-1.888 1.13-3.229zm19.376-40.656a4.755 4.755 0 0 0-3.195-1.024c-1.188.047-2.329.43-3.423 1.147-1.094.718-2.006 1.706-2.735 2.965-.73 1.258-1.094 2.723-1.094 4.394v9.281c0 2.683.324 4.847.97 6.494.648 1.647 1.536 2.841 2.665 3.582 1.13.742 2.423 1.065 3.882.97 2.235-.234 4.053-1.705 5.453-4.41 1.4-2.706 2.1-6.06 2.1-10.059 0-3.011-.424-5.705-1.27-8.082-.848-2.376-1.965-4.129-3.354-5.258zm44.362 7.411c.282 2.047.4 4.106.353 6.176v11.788c0 1.34.376 2.423 1.129 3.247.753.823 1.623 1.235 2.611 1.235h-8.293c-1.247.023-2.288-.283-3.123-.918-.836-.635-1.253-1.811-1.253-3.529v-1.447c-1.67 2.8-4.118 4.694-7.341 5.682-3.647.988-6.588.788-8.823-.6-2.235-1.388-3.594-3.347-4.076-5.876-.483-2.53.064-4.994 1.64-7.394 1.577-2.4 4.342-4.117 8.294-5.152a25.047 25.047 0 0 1 4.588-.636h3.741c.047 0 .153.012.318.036.165.023.359.047.582.07.224.024.412.03.565.018.153-.012.241-.053.265-.124l-.177-3.246c-.07-1.93-.6-3.67-1.588-5.224-.988-1.553-2.459-2.458-4.412-2.717-2.352-.118-4.017.447-4.993 1.694-.977 1.247-1.365 2.594-1.165 4.04.2 1.448.888 2.442 2.065 2.983-2.353.8-4.277.659-5.77-.424-1.495-1.082-2.042-2.623-1.642-4.623.706-2.211 2.306-3.847 4.8-4.905 2.494-1.06 5.247-1.47 8.258-1.236 3.812.306 6.865 1.377 9.159 3.212 2.294 1.835 3.723 4.459 4.288 7.87zm-8.717 4.341c-1.671-.165-3.412-.082-5.224.247-2.823.612-4.823 1.688-6 3.23-1.176 1.54-1.646 3.176-1.411 4.905.235 1.73 1.047 3.17 2.435 4.323 1.647 1.177 3.476 1.482 5.488.918 2.012-.565 3.63-1.73 4.853-3.494zm32.856-14.329c-3.247-.235-6.229.324-8.946 1.677-2.718 1.353-4.906 3.311-6.564 5.876-1.66 2.564-2.489 5.505-2.489 8.823 0 3.035.742 5.8 2.224 8.293a16.844 16.844 0 0 0 5.964 5.965c2.494 1.482 5.259 2.223 8.294 2.223 2.212 0 4.294-.411 6.247-1.235a17.058 17.058 0 0 0 5.188-3.388c-1.46.682-3.277 1.147-5.453 1.394-2.176.247-4.323-.006-6.44-.759-2.377-1.011-4.142-2.723-5.295-5.135-1.153-2.411-1.74-5.052-1.764-7.923a20.011 20.011 0 0 1 .211-3.776c.236-1.835.777-3.67 1.624-5.506 1.082-1.952 2.494-3.164 4.235-3.635 1.741-.47 3.364-.3 4.87.512 1.506.812 2.47 2.147 2.894 4.006.165.988.077 1.911-.264 2.77-.342.859-.889 1.5-1.641 1.924 1.552.564 2.946.6 4.182.106 1.235-.495 2.164-1.306 2.788-2.436.623-1.13.77-2.34.44-3.635-.658-2.164-1.987-3.694-3.987-4.588-2-.894-4.106-1.411-6.317-1.553zm22.058 16.376c.094 2.776.712 5.311 1.853 7.605 1.14 2.294 2.864 3.924 5.17 4.888 2.141.753 4.3 1.006 6.476.76 2.177-.248 3.982-.713 5.418-1.395a17.12 17.12 0 0 1-5.17 3.388c-1.942.824-4.03 1.235-6.265 1.235-3.035 0-5.8-.74-8.294-2.223a16.844 16.844 0 0 1-5.964-5.965c-1.482-2.494-2.224-5.258-2.224-8.293s.742-5.8 2.224-8.294a16.844 16.844 0 0 1 5.964-5.964c2.494-1.482 5.259-2.224 8.294-2.224s5.8.742 8.294 2.224a16.844 16.844 0 0 1 5.964 5.964c1.482 2.494 2.223 5.259 2.223 8.294zm14.929-2.118c-.071-1.082-.236-2.305-.495-3.67a19.254 19.254 0 0 0-1.217-3.988c-.553-1.294-1.294-2.37-2.223-3.23-.93-.858-2.112-1.287-3.547-1.287-1.294 0-2.406.423-3.335 1.27-.93.847-1.689 1.918-2.277 3.212a19.5 19.5 0 0 0-1.323 4.005c-.294 1.377-.465 2.606-.512 3.688z"/>
    <g fill-rule="evenodd">
      <path fill="#171c8f" d="M331.743 238.934c5.028-5.208 8.285-11.536 9.771-18.986l.019-.102 12.446-69.696a29.872 29.872 0 0 0 .429-6.724 29.238 29.238 0 0 0-.108-1.466 30.317 30.317 0 0 0-.43-2.897 31.233 31.233 0 0 0-.322-1.432 28.889 28.889 0 0 0-.39-1.411 29.477 29.477 0 0 0-.989-2.765 29.784 29.784 0 0 0-1.981-3.933c-.25-.416-.511-.829-.783-1.237a29.995 29.995 0 0 0-1.747-2.356 28.994 28.994 0 0 0-.961-1.112 29.894 29.894 0 0 0-2.072-2.074 29.1 29.1 0 0 0-1.114-.958 30.005 30.005 0 0 0-1.15-.9 31.783 31.783 0 0 0-1.2-.845 29.34 29.34 0 0 0-1.246-.788 29.345 29.345 0 0 0-3.925-1.977 30.822 30.822 0 0 0-2.764-.988 29.653 29.653 0 0 0-5.742-1.143 29.993 29.993 0 0 0-2.934-.144h-13.691a30.426 30.426 0 0 0-3.243.177 29.946 29.946 0 0 0-3.212.528 30.208 30.208 0 0 0-3.119.869 30.975 30.975 0 0 0-2.031.771c-.33.139-.661.285-.992.438-.326.153-.649.31-.97.473a28.52 28.52 0 0 0-1.9 1.057 29.339 29.339 0 0 0-1.807 1.183 29.587 29.587 0 0 0-2.55 2.023c-.267.236-.532.48-.794.729a30.396 30.396 0 0 0-1.511 1.547 31.478 31.478 0 0 0-1.399 1.657 30.545 30.545 0 0 0-1.548 2.169c-3.447-1.06-7.033-1.59-10.757-1.59-3.736 0-7.336.534-10.801 1.601-.09-.139-.181-.277-.273-.414a30.25 30.25 0 0 0-1.272-1.752 29.093 29.093 0 0 0-2.144-2.449c-.25-.257-.506-.511-.77-.762a29.818 29.818 0 0 0-1.619-1.435 30.188 30.188 0 0 0-4.472-3.049 32.689 32.689 0 0 0-.955-.509 31.329 31.329 0 0 0-.978-.476 32.468 32.468 0 0 0-1.998-.842 28.846 28.846 0 0 0-1.026-.368 29.365 29.365 0 0 0-2.065-.617 33.542 33.542 0 0 0-1.055-.254 32.074 32.074 0 0 0-2.13-.39 29.692 29.692 0 0 0-1.083-.138 29.85 29.85 0 0 0-1.076-.098 29.671 29.671 0 0 0-2.168-.079h-13.69a29.88 29.88 0 0 0-9.56 1.57c-.462.156-.922.324-1.38.505a29.505 29.505 0 0 0-3.957 1.901 30.79 30.79 0 0 0-2.475 1.59 29.45 29.45 0 0 0-2.297 1.816 28.947 28.947 0 0 0-2.114 2.038 29.024 29.024 0 0 0-1.902 2.235 29.398 29.398 0 0 0-1.673 2.407 29.661 29.661 0 0 0-2.049 3.892 29.707 29.707 0 0 0-1.038 2.744c-.151.465-.29.934-.417 1.407a28.998 28.998 0 0 0-.625 2.866c-.08.483-.149.967-.206 1.453-.057.486-.102.973-.134 1.461a29.883 29.883 0 0 0-.054 2.933 29.814 29.814 0 0 0 .235 2.924c.063.486.137.969.224 1.45l12.494 69.379c1.486 8.914 5.692 16.257 12.621 22.03 6.787 5.657 14.601 8.485 23.442 8.485 6.232 0 12.08-1.482 17.546-4.446 5.408-2.933 9.702-6.85 12.882-11.753 3.927 5.882 9.152 10.254 15.676 13.114 6.731 2.95 13.748 3.802 21.052 2.555.278-.048.555-.099.831-.154 7.488-1.498 13.878-4.987 19.17-10.468zm-.28-20.941 12.435-69.643a19.526 19.526 0 0 0 .282-4.417 18.841 18.841 0 0 0-.07-.96 18.814 18.814 0 0 0-.284-1.913 17.98 17.98 0 0 0-.211-.941 21.456 21.456 0 0 0-.258-.933 21.77 21.77 0 0 0-.302-.916 18.983 18.983 0 0 0-.347-.896 19.221 19.221 0 0 0-.824-1.744 20.858 20.858 0 0 0-.991-1.654c-.18-.268-.364-.53-.554-.786a21.335 21.335 0 0 0-.595-.763c-.204-.248-.414-.49-.629-.728a17.91 17.91 0 0 0-.668-.702 18.982 18.982 0 0 0-1.426-1.293 20.55 20.55 0 0 0-1.555-1.153 19.714 19.714 0 0 0-.808-.513 21.39 21.39 0 0 0-.844-.477c-.283-.151-.57-.296-.86-.433a19.51 19.51 0 0 0-1.78-.738 20.447 20.447 0 0 0-1.85-.562 20.359 20.359 0 0 0-1.892-.376 19.967 19.967 0 0 0-.96-.118 21.45 21.45 0 0 0-.96-.07 19.301 19.301 0 0 0-.962-.024h-13.691a18.472 18.472 0 0 0-1.421.052 19.013 19.013 0 0 0-1.421.155 20.064 20.064 0 0 0-2.094.423 22.089 22.089 0 0 0-1.366.408c-.22.074-.442.154-.665.239-.222.084-.443.172-.662.265a21.23 21.23 0 0 0-1.295.6 19.118 19.118 0 0 0-1.845 1.07 20 20 0 0 0-1.169.829 19.3 19.3 0 0 0-1.089.897c-.181.16-.357.322-.528.485a19.96 19.96 0 0 0-.507.501 18.553 18.553 0 0 0-.961 1.057 20.546 20.546 0 0 0-.877 1.12 18.14 18.14 0 0 0-.794 1.18 19.744 19.744 0 0 0-.707 1.236 18.035 18.035 0 0 0-.616 1.284 5.914 5.914 0 0 1-.223.45 5.878 5.878 0 0 1-.266.427 5.832 5.832 0 0 1-.307.398 4.886 4.886 0 0 1-.344.365 4.254 4.254 0 0 1-.186.17 5.016 5.016 0 0 1-.394.312 4.215 4.215 0 0 1-.423.271 4.685 4.685 0 0 1-.22.12 5.466 5.466 0 0 1-.227.109 5.97 5.97 0 0 1-.468.184 4.767 4.767 0 0 1-.24.074 4.803 4.803 0 0 1-.489.113 5.157 5.157 0 0 1-.249.039 5.252 5.252 0 0 1-.5.04 5.293 5.293 0 0 1-.252.001 5.263 5.263 0 0 1-.251-.01 7.033 7.033 0 0 1-.25-.023 5.33 5.33 0 0 1-.249-.036 5.363 5.363 0 0 1-.247-.047 5.419 5.419 0 0 1-.485-.131 5.59 5.59 0 0 1-.237-.084 5.153 5.153 0 0 1-.233-.094l-.095-.043c-3.439-1.583-7.1-2.375-10.981-2.375-3.89 0-7.566.796-11.029 2.389a5.173 5.173 0 0 1-.231.099 3.929 3.929 0 0 1-.236.088 5.11 5.11 0 0 1-.482.141 5.126 5.126 0 0 1-.994.137c-.084.003-.168.004-.252.003a5.309 5.309 0 0 1-.501-.03 5.304 5.304 0 0 1-.249-.033 6.718 6.718 0 0 1-.247-.046 5.126 5.126 0 0 1-.245-.058 4.766 4.766 0 0 1-.241-.069 6.057 6.057 0 0 1-.238-.082 4.744 4.744 0 0 1-.234-.093 4.685 4.685 0 0 1-.228-.104 5.9 5.9 0 0 1-.224-.115 6.81 6.81 0 0 1-.217-.127 4.726 4.726 0 0 1-.211-.136 7.55 7.55 0 0 1-.204-.147 5.853 5.853 0 0 1-.196-.157 5.902 5.902 0 0 1-.189-.166 5.927 5.927 0 0 1-.18-.175 7.442 7.442 0 0 1-.171-.184 4.84 4.84 0 0 1-.162-.192 5.875 5.875 0 0 1-.153-.2 5.827 5.827 0 0 1-.142-.207 4.371 4.371 0 0 1-.132-.214 5.173 5.173 0 0 1-.122-.22 5.851 5.851 0 0 1-.11-.225l-.043-.097a21.071 21.071 0 0 0-.616-1.285 20.006 20.006 0 0 0-.707-1.237 17.931 17.931 0 0 0-.387-.598 19.612 19.612 0 0 0-3.819-4.209 15.513 15.513 0 0 0-.555-.44 21.584 21.584 0 0 0-.579-.428 22.028 22.028 0 0 0-1.183-.774 18.685 18.685 0 0 0-1.892-1.008 19.778 19.778 0 0 0-1.312-.553 17.828 17.828 0 0 0-1.349-.457c-.23-.068-.461-.133-.693-.194a21.932 21.932 0 0 0-1.391-.307 18.514 18.514 0 0 0-1.404-.204 19.065 19.065 0 0 0-2.135-.117h-13.69a19.546 19.546 0 0 0-6.282 1.032 19.388 19.388 0 0 0-3.517 1.585 20.416 20.416 0 0 0-.824.501 19.605 19.605 0 0 0-4.342 3.794 18.99 18.99 0 0 0-.605.748 19.3 19.3 0 0 0-1.102 1.585 20.35 20.35 0 0 0-.94 1.685 19.806 19.806 0 0 0-.771 1.768 19.608 19.608 0 0 0-.821 2.772 19.091 19.091 0 0 0-.318 1.903 19.339 19.339 0 0 0-.13 1.924 19.397 19.397 0 0 0 .06 1.928 19.266 19.266 0 0 0 .248 1.913l12.494 69.378c1.084 6.502 4.117 11.828 9.098 15.979 4.889 4.074 10.518 6.111 16.887 6.111 4.5 0 8.721-1.069 12.664-3.207 4.229-2.294 7.486-5.393 9.772-9.297l3.611-5.921a5.827 5.827 0 0 1 .282-.415 5.018 5.018 0 0 1 .497-.567c.06-.059.121-.116.183-.172a5.872 5.872 0 0 1 .391-.315 4.7 4.7 0 0 1 .64-.398c.074-.039.149-.076.225-.112a5.954 5.954 0 0 1 .466-.188 4.821 4.821 0 0 1 1.225-.266 5.2 5.2 0 0 1 .251-.016c.083-.004.167-.005.251-.004a5.156 5.156 0 0 1 .501.028 5.175 5.175 0 0 1 .742.135 5.084 5.084 0 0 1 .942.345 5.9 5.9 0 0 1 .441.241 5.144 5.144 0 0 1 1.708 1.708l3.627 5.96c2.861 4.632 6.793 8.044 11.796 10.237 4.857 2.129 9.93 2.743 15.218 1.84.182-.031.364-.065.545-.101 5.397-1.08 10.001-3.593 13.812-7.54 3.626-3.755 5.988-8.364 7.087-13.828z"/>
      <path fill="#653279" d="m312.104 214.591 12.446-69.696h-13.691l-8.919 49.109-21.158-33.915a6.983 6.983 0 0 0-2.489-2.334 6.656 6.656 0 0 0-3.267-.829 6.803 6.803 0 0 0-3.293.829 6.134 6.134 0 0 0-2.411 2.334l-21.262 33.915-8.919-49.109h-13.69L238 214.591c.277 1.659 1.037 3.008 2.282 4.045 1.244 1.037 2.679 1.555 4.304 1.555a6.803 6.803 0 0 0 3.293-.829 6.134 6.134 0 0 0 2.411-2.334l24.736-40.552 24.684 40.552a6.488 6.488 0 0 0 2.982 2.593c1.262.553 2.601.709 4.019.467a6.582 6.582 0 0 0 3.526-1.919 7.034 7.034 0 0 0 1.867-3.578z"/>
    </g>
  </g>
  <path fill="transparent" d="M96 281h358v74H96z"/>
  <use xlink:href="#a"/>
  <use xlink:href="#a"/>
  <use xlink:href="#a"/>
  <path fill="transparent" d="M225 145h99v75h-99zM96 281h88v58H96zm149 8h38v51h-38zm71 18h37v48h-37zm39-1h33v34h-33z"/>
  <path fill="transparent" d="M179 307h33v33h-33zm242 0h33v33h-33zm-207-1h29v34h-29zm71 0h29v34h-29zm105 1h28v33h-28z"/>
</svg>
